<svg width="10" height="12" viewBox="0 0 10 12" fill="none" xmlns="http://www.w3.org/2000/svg">
<g clip-path="url(#clip0_2019_166)">
<path fill-rule="evenodd" clip-rule="evenodd" d="M4.99996 2.438L1.45996 5.89C1.3882 5.96132 1.29113 6.00135 1.18996 6.00135C1.08878 6.00135 0.991714 5.96132 0.919955 5.89L0.111955 5.103C0.0766936 5.06887 0.0486544 5.028 0.0295053 4.98282C0.0103562 4.93764 0.000488281 4.88907 0.000488281 4.84C0.000488281 4.79092 0.0103562 4.74235 0.0295053 4.69717C0.0486544 4.65199 0.0766936 4.61112 0.111955 4.577L4.69395 0.109996C4.73394 0.0706926 4.78208 0.040649 4.83495 0.0219873C4.88783 0.00332572 4.94415 -0.00349869 4.99996 0.00199614C5.05572 -0.0030241 5.11192 0.00402334 5.16472 0.0226593C5.21752 0.0412952 5.26569 0.0710826 5.30596 0.109996L9.88896 4.577C9.92422 4.61112 9.95226 4.65199 9.97141 4.69717C9.99055 4.74235 10.0004 4.79092 10.0004 4.84C10.0004 4.88907 9.99055 4.93764 9.97141 4.98282C9.95226 5.028 9.92422 5.06887 9.88896 5.103L9.07996 5.89C9.00824 5.96102 8.91139 6.00086 8.81046 6.00086C8.70952 6.00086 8.61267 5.96102 8.54096 5.89L4.99996 2.438Z" fill="#F9F5E1"/>
<path fill-rule="evenodd" clip-rule="evenodd" d="M4.99996 8.438L1.45996 11.89C1.3882 11.9613 1.29113 12.0014 1.18996 12.0014C1.08878 12.0014 0.991714 11.9613 0.919955 11.89L0.111955 11.103C0.0766936 11.0689 0.0486544 11.028 0.0295053 10.9828C0.0103562 10.9376 0.000488281 10.8891 0.000488281 10.84C0.000488281 10.7909 0.0103562 10.7424 0.0295053 10.6972C0.0486544 10.652 0.0766936 10.6111 0.111955 10.577L4.69395 6.11C4.73394 6.07069 4.78208 6.04065 4.83495 6.02199C4.88783 6.00333 4.94415 5.9965 4.99996 6.002C5.05572 5.99698 5.11192 6.00402 5.16472 6.02266C5.21752 6.0413 5.26569 6.07108 5.30596 6.11L9.88795 10.577C9.92322 10.6111 9.95126 10.652 9.97041 10.6972C9.98955 10.7424 9.99942 10.7909 9.99942 10.84C9.99942 10.8891 9.98955 10.9376 9.97041 10.9828C9.95126 11.028 9.92322 11.0689 9.88795 11.103L9.07996 11.89C9.00824 11.961 8.91139 12.0009 8.81046 12.0009C8.70952 12.0009 8.61267 11.961 8.54096 11.89L4.99996 8.438Z" fill="#F9F5E1"/>
</g>
<defs>
<clipPath id="clip0_2019_166">
<rect width="10" height="12" fill="white"/>
</clipPath>
</defs>
</svg>
